<svg xmlns="http://www.w3.org/2000/svg" viewBox="0 0 800 500">
  <defs>
    <linearGradient id="goldGlow3" x1="0%" y1="0%" x2="100%" y2="100%">
      <stop offset="0%" style="stop-color:#D4AF37;stop-opacity:1" />
      <stop offset="50%" style="stop-color:#FFD700;stop-opacity:0.8" />
      <stop offset="100%" style="stop-color:#B8860B;stop-opacity:1" />
    </linearGradient>
    <linearGradient id="bgGrad3" x1="0%" y1="0%" x2="0%" y2="100%">
      <stop offset="0%" style="stop-color:#161616" />
      <stop offset="100%" style="stop-color:#0a0a0a" />
    </linearGradient>
    <filter id="glow3">
      <feGaussianBlur stdDeviation="4" result="coloredBlur"/>
      <feMerge>
        <feMergeNode in="coloredBlur"/>
        <feMergeNode in="SourceGraphic"/>
      </feMerge>
    </filter>
    <filter id="softGlow3">
      <feGaussianBlur stdDeviation="10" result="coloredBlur"/>
      <feMerge>
        <feMergeNode in="coloredBlur"/>
        <feMergeNode in="SourceGraphic"/>
      </feMerge>
    </filter>
  </defs>
  
  <!-- Background -->
  <rect width="800" height="500" fill="url(#bgGrad3)"/>
  
  <!-- Architectural reference lines - floor and walls -->
  <g stroke="#333" stroke-width="0.5" opacity="0.4">
    <!-- Floor line -->
    <line x1="0" y1="460" x2="800" y2="460"/>
    <!-- Wall corner hint -->
    <line x1="700" y1="0" x2="700" y2="460"/>
    <!-- Ceiling hint -->
    <line x1="0" y1="40" x2="800" y2="40"/>
  </g>
  
  <!-- Massive AR Artwork - takes up significant vertical space -->
  <g filter="url(#softGlow3)">
    <rect x="280" y="60" width="350" height="380" fill="none" stroke="url(#goldGlow3)" stroke-width="3" rx="2"/>
    
    <!-- Abstract art content inside -->
    <circle cx="455" cy="200" r="80" fill="none" stroke="#D4AF37" stroke-width="1.5" opacity="0.5"/>
    <circle cx="455" cy="200" r="50" fill="none" stroke="#FFD700" stroke-width="1" opacity="0.4"/>
    <rect x="380" y="280" width="150" height="100" fill="none" stroke="#D4AF37" stroke-width="1" opacity="0.4" transform="rotate(10 455 330)"/>
    <path d="M 320 350 Q 400 300 500 350 Q 550 380 600 340" stroke="#FFD700" stroke-width="1.5" fill="none" opacity="0.5"/>
  </g>
  
  <!-- Measurement lines - vertical (height) -->
  <g stroke="#D4AF37" stroke-width="1.5" filter="url(#glow3)" opacity="0.8">
    <!-- Left side height measurement -->
    <line x1="250" y1="60" x2="250" y2="440"/>
    <!-- Top tick -->
    <line x1="240" y1="60" x2="260" y2="60"/>
    <!-- Bottom tick -->
    <line x1="240" y1="440" x2="260" y2="440"/>
    <!-- Middle ticks -->
    <line x1="245" y1="150" x2="255" y2="150"/>
    <line x1="245" y1="250" x2="255" y2="250"/>
    <line x1="245" y1="350" x2="255" y2="350"/>
  </g>
  
  <!-- Measurement lines - horizontal (width) -->
  <g stroke="#D4AF37" stroke-width="1.5" filter="url(#glow3)" opacity="0.8">
    <!-- Bottom width measurement -->
    <line x1="280" y1="470" x2="630" y2="470"/>
    <!-- Left tick -->
    <line x1="280" y1="465" x2="280" y2="475"/>
    <!-- Right tick -->
    <line x1="630" y1="465" x2="630" y2="475"/>
    <!-- Middle ticks -->
    <line x1="400" y1="467" x2="400" y2="473"/>
    <line x1="520" y1="467" x2="520" y2="473"/>
  </g>
  
  <!-- Spatial grid markers on artwork -->
  <g stroke="#FFD700" stroke-width="0.5" opacity="0.25">
    <line x1="280" y1="155" x2="630" y2="155"/>
    <line x1="280" y1="250" x2="630" y2="250"/>
    <line x1="280" y1="345" x2="630" y2="345"/>
    <line x1="397" y1="60" x2="397" y2="440"/>
    <line x1="513" y1="60" x2="513" y2="440"/>
  </g>
  
  <!-- Corner precision markers -->
  <g stroke="#FFD700" stroke-width="2" fill="none" filter="url(#glow3)">
    <path d="M 280 80 L 280 60 L 300 60"/>
    <path d="M 610 60 L 630 60 L 630 80"/>
    <path d="M 630 420 L 630 440 L 610 440"/>
    <path d="M 300 440 L 280 440 L 280 420"/>
  </g>
  
  <!-- Person silhouette - standing for scale reference -->
  <g fill="#9A7B5B">
    <!-- Feet/base -->
    <ellipse cx="130" cy="458" rx="30" ry="8"/>
    <!-- Legs -->
    <rect x="105" y="380" width="20" height="80" rx="5"/>
    <rect x="135" y="380" width="20" height="80" rx="5"/>
    <!-- Torso -->
    <path d="M 100 280 Q 95 330 105 380 L 155 380 Q 165 330 160 280 Z"/>
    <!-- Head -->
    <circle cx="130" cy="250" r="30"/>
    <!-- Arms at sides -->
    <path d="M 100 290 Q 80 330 85 370" stroke="#9A7B5B" stroke-width="14" fill="none" stroke-linecap="round"/>
    <path d="M 160 290 Q 180 330 175 370" stroke="#9A7B5B" stroke-width="14" fill="none" stroke-linecap="round"/>
  </g>
  
  <!-- Human height reference line -->
  <g stroke="#D4AF37" stroke-width="1" opacity="0.5" stroke-dasharray="3,3">
    <line x1="130" y1="220" x2="130" y2="460"/>
    <line x1="120" y1="220" x2="140" y2="220"/>
  </g>
  
  <!-- Scale comparison indicator -->
  <g fill="#D4AF37" opacity="0.6" filter="url(#glow3)">
    <circle cx="200" cy="250" r="3"/>
    <line x1="140" y1="250" x2="197" y2="250" stroke="#D4AF37" stroke-width="1"/>
  </g>
  
  <!-- Ambient particles -->
  <g fill="#D4AF37" opacity="0.3">
    <circle cx="680" cy="100" r="1.5"/>
    <circle cx="720" cy="300" r="1"/>
    <circle cx="50" cy="150" r="1"/>
    <circle cx="750" cy="420" r="1.5"/>
  </g>
</svg>
